<svg xmlns="http://www.w3.org/2000/svg" viewBox="0 0 128 128"><defs><linearGradient id="face" x1=".2" y1="0" x2=".8" y2="1"><stop offset="0" stop-color="#FEF08A"/><stop offset=".45" stop-color="#FBBF24"/><stop offset="1" stop-color="#D97706"/></linearGradient><linearGradient id="edge" x1="0" y1="0" x2="0" y2="1"><stop offset="0" stop-color="#B45309"/><stop offset="1" stop-color="#78350F"/></linearGradient><radialGradient id="shine" cx=".3" cy=".25" r=".65"><stop offset="0" stop-color="#fff" stop-opacity=".8"/><stop offset="1" stop-color="#fff" stop-opacity="0"/></radialGradient></defs><ellipse cx="64" cy="119" rx="38" ry="6" fill="#000" opacity=".22"/><circle cx="64" cy="71" r="46" fill="url(#edge)"/><circle cx="64" cy="64" r="46" fill="url(#face)"/><circle cx="64" cy="64" r="37" fill="none" stroke="#B45309" stroke-opacity=".55" stroke-width="3"/><path d="M46 44H80M46 56H80M50 44H60C74 44 74 68 60 68H50L74 91" fill="none" stroke="#7C2D12" stroke-width="7" stroke-linecap="round" stroke-linejoin="round"/><circle cx="64" cy="64" r="46" fill="url(#shine)"/><path d="M110 18l3 8 8 3-8 3-3 8-3-8-8-3 8-3z" fill="#FDE047"/><path d="M14 32l2 5 5 2-5 2-2 5-2-5-5-2 5-2z" fill="#93C5FD"/></svg>
